{"accessors":[{"bufferView":0,"componentType":5126,"count":2253,"max":[7.600000381469727,6.099999904632568,7.700000286102295],"min":[-7.800000190734863,0.4999995231628418,-7.700000762939453],"normalized":false,"type":"VEC3"},{"bufferView":1,"componentType":5126,"count":2253,"max":[1.0,6.454121466958895e-05,1.0,1.0],"min":[-1.0,-1.0,-1.0,-1.0],"normalized":false,"type":"VEC4"},{"bufferView":2,"componentType":5126,"count":2253,"max":[1.0,1.0,1.0],"min":[-1.0,-1.0,-1.0],"normalized":false,"type":"VEC3"},{"bufferView":3,"componentType":5126,"count":2253,"max":[1.0,1.0],"min":[0.0,0.0],"normalized":false,"type":"VEC2"},{"bufferView":4,"componentType":5123,"count":2253,"max":[2252],"min":[0],"normalized":false,"type":"SCALAR"},{"bufferView":5,"componentType":5126,"count":669,"max":[7.600000381469727,0.5,7.699999809265137],"min":[-7.800000190734863,-0.6000000238418579,-7.700000762939453],"normalized":false,"type":"VEC3"},{"bufferView":6,"componentType":5126,"count":669,"max":[1.0,0.0,7.630093023180962e-05,1.0],"min":[-1.0,-1.0,-1.0,-1.0],"normalized":false,"type":"VEC4"},{"bufferView":7,"componentType":5126,"count":669,"max":[1.0,1.0,1.0],"min":[-1.0,-1.0,-1.0],"normalized":false,"type":"VEC3"},{"bufferView":8,"componentType":5126,"count":669,"max":[1.0,1.0],"min":[0.0,0.0],"normalized":false,"type":"VEC2"},{"bufferView":9,"componentType":5123,"count":669,"max":[668],"min":[0],"normalized":false,"type":"SCALAR"}],"asset":{"generator":"Godot Engine v4.7.1.stable.official@a13da4feb8d8aefc283c3763d33a2f170a18d541","version":"2.0"},"bufferViews":[{"buffer":0,"byteLength":27036,"byteStride":12,"target":34962},{"buffer":0,"byteLength":36048,"byteOffset":27036,"byteStride":16,"target":34962},{"buffer":0,"byteLength":27036,"byteOffset":63084,"byteStride":12,"target":34962},{"buffer":0,"byteLength":18024,"byteOffset":90120,"byteStride":8,"target":34962},{"buffer":0,"byteLength":4506,"byteOffset":108144,"target":34963},{"buffer":0,"byteLength":8028,"byteOffset":112652,"byteStride":12,"target":34962},{"buffer":0,"byteLength":10704,"byteOffset":120680,"byteStride":16,"target":34962},{"buffer":0,"byteLength":8028,"byteOffset":131384,"byteStride":12,"target":34962},{"buffer":0,"byteLength":5352,"byteOffset":139412,"byteStride":8,"target":34962},{"buffer":0,"byteLength":1338,"byteOffset":144764,"target":34963}],"buffers":[{"byteLength":146102,"uri":"main0.bin"}],"extensionsUsed":["GODOT_single_root"],"materials":[{},{"pbrMetallicRoughness":{"baseColorFactor":[1.0,1.0,1.0,1.0],"metallicFactor":0.0,"roughnessFactor":1.0}}],"meshes":[{"name":"CSGCombiner3D2","primitives":[{"attributes":{"NORMAL":2,"POSITION":0,"TANGENT":1,"TEXCOORD_0":3},"indices":4,"material":0,"mode":4},{"attributes":{"NORMAL":7,"POSITION":5,"TANGENT":6,"TEXCOORD_0":8},"indices":9,"material":1,"mode":4}]}],"nodes":[{"children":[1],"name":"Main"},{"children":[2,3,4,5,6,7,8,10,12,14,16],"mesh":0,"name":"CSGCombiner3D2"},{"name":"CSGCylinder3D5","translation":[-1.0,0.4000000059604645,-4.0]},{"name":"CSGCylinder3D4","translation":[1.0,0.4000000059604645,-4.0]},{"name":"CSGCylinder3D3","translation":[-1.0,0.40000003576278687,4.099999904632568]},{"name":"CSGCylinder3D2","translation":[1.0,0.40000003576278687,4.0]},{"name":"CSGBox3D6","scale":[6.200000286102295,1.0,6.099999904632568],"translation":[0.0,1.6000001430511475,-0.10000000149011612]},{"name":"CSGCylinder3D","scale":[1.0,1.7000000476837158,1.0],"translation":[0.0,0.9350001215934753,0.0]},{"children":[9],"name":"CSGBox3D5","rotation":[0.0,-0.7071067690849304,0.0,0.7071067690849304],"translation":[-0.09999984502792358,3.299999713897705,-7.200000286102295]},{"name":"CSGBox3D","scale":[3.299999952316284,4.350000381469727,2.1999998092651367],"translation":[-0.021500110626220703,-0.5999999046325684,-0.15000005066394806]},{"children":[11],"name":"CSGBox3D4","rotation":[0.0,0.7071067690849304,0.0,0.7071067690849304],"translation":[-0.1000000461935997,3.299999713897705,7.199999809265137]},{"name":"CSGBox3D2","scale":[3.299999952316284,4.350000381469727,2.1999998092651367],"translation":[-0.021500110626220703,-0.5999999046325684,-0.15000005066394806]},{"children":[13],"name":"CSGBox3D3","translation":[7.09999942779541,3.299999475479126,-3.8743019104003906e-07]},{"name":"CSGBox3D7","scale":[3.299999952316284,4.350000381469727,2.1999998092651367],"translation":[-0.021500110626220703,-0.5999999046325684,-0.15000005066394806]},{"children":[15],"name":"CSGBox3D22","translation":[-7.300000190734863,3.299999952316284,-2.384185791015625e-07]},{"name":"CSGBox3D8","scale":[3.299999952316284,4.350000381469727,2.1999998092651367],"translation":[-0.021500110626220703,-0.5999999046325684,-0.15000005066394806]},{"name":"CSGBox3D9","translation":[-0.10000014305114746,-0.050000011920928955,-7.152557373046875e-07]}],"scene":0,"scenes":[{"nodes":[0]}]}