{
	"asset":{
		"generator":"Khronos glTF Blender I/O v5.2.40",
		"version":"2.0"
	},
	"scene":0,
	"scenes":[
		{
			"name":"Scene",
			"nodes":[
				0,
				1,
				2,
				3,
				4,
				5,
				6,
				7,
				8,
				9,
				10,
				11,
				12,
				13,
				14,
				15,
				16,
				17,
				18,
				19,
				20,
				21,
				22,
				23,
				24,
				25
			]
		}
	],
	"nodes":[
		{
			"mesh":0,
			"name":"CandleStick.001"
		},
		{
			"mesh":1,
			"name":"Fork.001"
		},
		{
			"mesh":2,
			"name":"Fork.002"
		},
		{
			"mesh":3,
			"name":"Fork.003"
		},
		{
			"mesh":4,
			"name":"Fork.004"
		},
		{
			"mesh":5,
			"name":"Fork.005"
		},
		{
			"mesh":6,
			"name":"Fork.006"
		},
		{
			"mesh":7,
			"name":"Fork.007"
		},
		{
			"mesh":8,
			"name":"Fork.008"
		},
		{
			"mesh":9,
			"name":"Knife.001"
		},
		{
			"mesh":10,
			"name":"Knife.002"
		},
		{
			"mesh":11,
			"name":"Knife.003"
		},
		{
			"mesh":12,
			"name":"Knife.004"
		},
		{
			"mesh":13,
			"name":"Knife.005"
		},
		{
			"mesh":14,
			"name":"Knife.006"
		},
		{
			"mesh":15,
			"name":"Knife.007"
		},
		{
			"mesh":16,
			"name":"Knife.008"
		},
		{
			"mesh":17,
			"name":"Plate.001"
		},
		{
			"mesh":18,
			"name":"Plate.002"
		},
		{
			"mesh":19,
			"name":"Plate.003"
		},
		{
			"mesh":20,
			"name":"Plate.004"
		},
		{
			"mesh":21,
			"name":"Plate.005"
		},
		{
			"mesh":22,
			"name":"Plate.006"
		},
		{
			"mesh":23,
			"name":"Plate.007"
		},
		{
			"mesh":24,
			"name":"Plate.008"
		},
		{
			"mesh":25,
			"name":"Table"
		}
	],
	"materials":[
		{
			"doubleSided":true,
			"name":"Candle"
		},
		{
			"doubleSided":true,
			"name":"PlateAndCutlery"
		},
		{
			"doubleSided":true,
			"name":"Table"
		}
	],
	"meshes":[
		{
			"name":"Cylinder.029",
			"primitives":[
				{
					"attributes":{
						"POSITION":0,
						"NORMAL":1,
						"TEXCOORD_0":2
					},
					"indices":3,
					"material":0
				}
			]
		},
		{
			"name":"Cube.022",
			"primitives":[
				{
					"attributes":{
						"POSITION":4,
						"NORMAL":5,
						"TEXCOORD_0":6
					},
					"indices":7,
					"material":1
				}
			]
		},
		{
			"name":"Cube.023",
			"primitives":[
				{
					"attributes":{
						"POSITION":8,
						"NORMAL":9,
						"TEXCOORD_0":10
					},
					"indices":7,
					"material":1
				}
			]
		},
		{
			"name":"Cube.025",
			"primitives":[
				{
					"attributes":{
						"POSITION":11,
						"NORMAL":12,
						"TEXCOORD_0":13
					},
					"indices":7,
					"material":1
				}
			]
		},
		{
			"name":"Cube.027",
			"primitives":[
				{
					"attributes":{
						"POSITION":14,
						"NORMAL":15,
						"TEXCOORD_0":16
					},
					"indices":7,
					"material":1
				}
			]
		},
		{
			"name":"Cube.029",
			"primitives":[
				{
					"attributes":{
						"POSITION":17,
						"NORMAL":18,
						"TEXCOORD_0":19
					},
					"indices":7,
					"material":1
				}
			]
		},
		{
			"name":"Cube.031",
			"primitives":[
				{
					"attributes":{
						"POSITION":20,
						"NORMAL":21,
						"TEXCOORD_0":22
					},
					"indices":7,
					"material":1
				}
			]
		},
		{
			"name":"Cube.033",
			"primitives":[
				{
					"attributes":{
						"POSITION":23,
						"NORMAL":24,
						"TEXCOORD_0":25
					},
					"indices":7,
					"material":1
				}
			]
		},
		{
			"name":"Cube.035",
			"primitives":[
				{
					"attributes":{
						"POSITION":26,
						"NORMAL":27,
						"TEXCOORD_0":28
					},
					"indices":7,
					"material":1
				}
			]
		},
		{
			"name":"Cube.021",
			"primitives":[
				{
					"attributes":{
						"POSITION":29,
						"NORMAL":30,
						"TEXCOORD_0":31
					},
					"indices":32,
					"material":1
				}
			]
		},
		{
			"name":"Cube.024",
			"primitives":[
				{
					"attributes":{
						"POSITION":33,
						"NORMAL":34,
						"TEXCOORD_0":35
					},
					"indices":32,
					"material":1
				}
			]
		},
		{
			"name":"Cube.026",
			"primitives":[
				{
					"attributes":{
						"POSITION":36,
						"NORMAL":37,
						"TEXCOORD_0":38
					},
					"indices":32,
					"material":1
				}
			]
		},
		{
			"name":"Cube.028",
			"primitives":[
				{
					"attributes":{
						"POSITION":39,
						"NORMAL":40,
						"TEXCOORD_0":41
					},
					"indices":32,
					"material":1
				}
			]
		},
		{
			"name":"Cube.030",
			"primitives":[
				{
					"attributes":{
						"POSITION":42,
						"NORMAL":43,
						"TEXCOORD_0":44
					},
					"indices":32,
					"material":1
				}
			]
		},
		{
			"name":"Cube.032",
			"primitives":[
				{
					"attributes":{
						"POSITION":45,
						"NORMAL":46,
						"TEXCOORD_0":47
					},
					"indices":32,
					"material":1
				}
			]
		},
		{
			"name":"Cube.034",
			"primitives":[
				{
					"attributes":{
						"POSITION":48,
						"NORMAL":49,
						"TEXCOORD_0":50
					},
					"indices":32,
					"material":1
				}
			]
		},
		{
			"name":"Cube.036",
			"primitives":[
				{
					"attributes":{
						"POSITION":51,
						"NORMAL":52,
						"TEXCOORD_0":53
					},
					"indices":32,
					"material":1
				}
			]
		},
		{
			"name":"Cylinder.008",
			"primitives":[
				{
					"attributes":{
						"POSITION":54,
						"NORMAL":55,
						"TEXCOORD_0":56
					},
					"indices":57,
					"material":1
				}
			]
		},
		{
			"name":"Cylinder.016",
			"primitives":[
				{
					"attributes":{
						"POSITION":58,
						"NORMAL":59,
						"TEXCOORD_0":60
					},
					"indices":57,
					"material":1
				}
			]
		},
		{
			"name":"Cylinder.017",
			"primitives":[
				{
					"attributes":{
						"POSITION":61,
						"NORMAL":62,
						"TEXCOORD_0":63
					},
					"indices":57,
					"material":1
				}
			]
		},
		{
			"name":"Cylinder.018",
			"primitives":[
				{
					"attributes":{
						"POSITION":64,
						"NORMAL":65,
						"TEXCOORD_0":66
					},
					"indices":57,
					"material":1
				}
			]
		},
		{
			"name":"Cylinder.019",
			"primitives":[
				{
					"attributes":{
						"POSITION":67,
						"NORMAL":68,
						"TEXCOORD_0":69
					},
					"indices":57,
					"material":1
				}
			]
		},
		{
			"name":"Cylinder.020",
			"primitives":[
				{
					"attributes":{
						"POSITION":70,
						"NORMAL":71,
						"TEXCOORD_0":72
					},
					"indices":57,
					"material":1
				}
			]
		},
		{
			"name":"Cylinder.021",
			"primitives":[
				{
					"attributes":{
						"POSITION":73,
						"NORMAL":74,
						"TEXCOORD_0":75
					},
					"indices":57,
					"material":1
				}
			]
		},
		{
			"name":"Cylinder.022",
			"primitives":[
				{
					"attributes":{
						"POSITION":76,
						"NORMAL":77,
						"TEXCOORD_0":78
					},
					"indices":57,
					"material":1
				}
			]
		},
		{
			"name":"Cylinder.007",
			"primitives":[
				{
					"attributes":{
						"POSITION":79,
						"NORMAL":80,
						"TEXCOORD_0":81
					},
					"indices":82,
					"material":2
				}
			]
		}
	],
	"accessors":[
		{
			"bufferView":0,
			"componentType":5126,
			"count":557,
			"max":[
				0.7788792252540588,
				11.106729507446289,
				0.8096070885658264
			],
			"min":[
				-0.778877317905426,
				6.019931793212891,
				-0.828315019607544
			],
			"type":"VEC3"
		},
		{
			"bufferView":1,
			"componentType":5126,
			"count":557,
			"type":"VEC3"
		},
		{
			"bufferView":2,
			"componentType":5126,
			"count":557,
			"type":"VEC2"
		},
		{
			"bufferView":3,
			"componentType":5123,
			"count":2400,
			"type":"SCALAR"
		},
		{
			"bufferView":4,
			"componentType":5126,
			"count":100,
			"max":[
				-1.8155782222747803,
				6.184706687927246,
				11.8202543258667
			],
			"min":[
				-2.11080265045166,
				6.032542705535889,
				9.086082458496094
			],
			"type":"VEC3"
		},
		{
			"bufferView":5,
			"componentType":5126,
			"count":100,
			"type":"VEC3"
		},
		{
			"bufferView":6,
			"componentType":5126,
			"count":100,
			"type":"VEC2"
		},
		{
			"bufferView":7,
			"componentType":5123,
			"count":324,
			"type":"SCALAR"
		},
		{
			"bufferView":8,
			"componentType":5126,
			"count":100,
			"max":[
				4.9684529304504395,
				6.266894817352295,
				7.156775951385498
			],
			"min":[
				2.232475757598877,
				6.135628700256348,
				6.8620734214782715
			],
			"type":"VEC3"
		},
		{
			"bufferView":9,
			"componentType":5126,
			"count":100,
			"type":"VEC3"
		},
		{
			"bufferView":10,
			"componentType":5126,
			"count":100,
			"type":"VEC2"
		},
		{
			"bufferView":11,
			"componentType":5126,
			"count":100,
			"max":[
				5.2764506340026855,
				6.1847028732299805,
				2.0064213275909424
			],
			"min":[
				2.5369741916656494,
				6.0325422286987305,
				1.654968023300171
			],
			"type":"VEC3"
		},
		{
			"bufferView":12,
			"componentType":5126,
			"count":100,
			"type":"VEC3"
		},
		{
			"bufferView":13,
			"componentType":5126,
			"count":100,
			"type":"VEC2"
		},
		{
			"bufferView":14,
			"componentType":5126,
			"count":100,
			"max":[
				4.8432297706604,
				6.184706211090088,
				-4.90542459487915
			],
			"min":[
				2.1049537658691406,
				6.032542705535889,
				-5.441344261169434
			],
			"type":"VEC3"
		},
		{
			"bufferView":15,
			"componentType":5126,
			"count":100,
			"type":"VEC3"
		},
		{
			"bufferView":16,
			"componentType":5126,
			"count":100,
			"type":"VEC2"
		},
		{
			"bufferView":17,
			"componentType":5126,
			"count":100,
			"max":[
				0.458513081073761,
				6.294981479644775,
				-9.692770004272461
			],
			"min":[
				0.16248057782649994,
				6.1489949226379395,
				-12.42971420288086
			],
			"type":"VEC3"
		},
		{
			"bufferView":18,
			"componentType":5126,
			"count":100,
			"type":"VEC3"
		},
		{
			"bufferView":19,
			"componentType":5126,
			"count":100,
			"type":"VEC2"
		},
		{
			"bufferView":20,
			"componentType":5126,
			"count":100,
			"max":[
				-2.5024828910827637,
				6.1847076416015625,
				-7.788009166717529
			],
			"min":[
				-5.2431769371032715,
				6.032542705535889,
				-8.22453784942627
			],
			"type":"VEC3"
		},
		{
			"bufferView":21,
			"componentType":5126,
			"count":100,
			"type":"VEC3"
		},
		{
			"bufferView":22,
			"componentType":5126,
			"count":100,
			"type":"VEC2"
		},
		{
			"bufferView":23,
			"componentType":5126,
			"count":100,
			"max":[
				-2.4939053058624268,
				6.258803367614746,
				-0.6931989192962646
			],
			"min":[
				-5.230917453765869,
				6.133361339569092,
				-0.9884854555130005
			],
			"type":"VEC3"
		},
		{
			"bufferView":24,
			"componentType":5126,
			"count":100,
			"type":"VEC3"
		},
		{
			"bufferView":25,
			"componentType":5126,
			"count":100,
			"type":"VEC2"
		},
		{
			"bufferView":26,
			"componentType":5126,
			"count":100,
			"max":[
				-2.2991766929626465,
				6.1847076416015625,
				4.860714912414551
			],
			"min":[
				-5.030287265777588,
				6.032542705535889,
				4.219637393951416
			],
			"type":"VEC3"
		},
		{
			"bufferView":27,
			"componentType":5126,
			"count":100,
			"type":"VEC3"
		},
		{
			"bufferView":28,
			"componentType":5126,
			"count":100,
			"type":"VEC2"
		},
		{
			"bufferView":29,
			"componentType":5126,
			"count":46,
			"max":[
				2.028118133544922,
				6.161679744720459,
				11.786680221557617
			],
			"min":[
				1.6060731410980225,
				6.0307488441467285,
				8.590400695800781
			],
			"type":"VEC3"
		},
		{
			"bufferView":30,
			"componentType":5126,
			"count":46,
			"type":"VEC3"
		},
		{
			"bufferView":31,
			"componentType":5126,
			"count":46,
			"type":"VEC2"
		},
		{
			"bufferView":32,
			"componentType":5123,
			"count":150,
			"type":"SCALAR"
		},
		{
			"bufferView":33,
			"componentType":5126,
			"count":46,
			"max":[
				5.119785785675049,
				6.300108909606934,
				5.9174699783325195
			],
			"min":[
				1.923736810684204,
				6.14580774307251,
				5.478252410888672
			],
			"type":"VEC3"
		},
		{
			"bufferView":34,
			"componentType":5126,
			"count":46,
			"type":"VEC3"
		},
		{
			"bufferView":35,
			"componentType":5126,
			"count":46,
			"type":"VEC2"
		},
		{
			"bufferView":36,
			"componentType":5126,
			"count":46,
			"max":[
				4.972533226013184,
				6.161678791046143,
				-1.0989289283752441
			],
			"min":[
				1.7955585718154907,
				6.030747890472412,
				-1.699347734451294
			],
			"type":"VEC3"
		},
		{
			"bufferView":37,
			"componentType":5126,
			"count":46,
			"type":"VEC3"
		},
		{
			"bufferView":38,
			"componentType":5126,
			"count":46,
			"type":"VEC2"
		},
		{
			"bufferView":39,
			"componentType":5126,
			"count":46,
			"max":[
				4.805729389190674,
				6.190876483917236,
				-8.243260383605957
			],
			"min":[
				1.6360955238342285,
				6.0496320724487305,
				-8.788215637207031
			],
			"type":"VEC3"
		},
		{
			"bufferView":40,
			"componentType":5126,
			"count":46,
			"type":"VEC3"
		},
		{
			"bufferView":41,
			"componentType":5126,
			"count":46,
			"type":"VEC2"
		},
		{
			"bufferView":42,
			"componentType":5126,
			"count":46,
			"max":[
				-0.8171648979187012,
				6.266821384429932,
				-8.999553680419922
			],
			"min":[
				-1.4682199954986572,
				6.135894775390625,
				-12.16926383972168
			],
			"type":"VEC3"
		},
		{
			"bufferView":43,
			"componentType":5126,
			"count":46,
			"type":"VEC3"
		},
		{
			"bufferView":44,
			"componentType":5126,
			"count":46,
			"type":"VEC2"
		},
		{
			"bufferView":45,
			"componentType":5126,
			"count":46,
			"max":[
				-2.4873862266540527,
				6.275898456573486,
				-4.077838897705078
			],
			"min":[
				-5.23124361038208,
				6.005762577056885,
				-5.844852447509766
			],
			"type":"VEC3"
		},
		{
			"bufferView":46,
			"componentType":5126,
			"count":46,
			"type":"VEC3"
		},
		{
			"bufferView":47,
			"componentType":5126,
			"count":46,
			"type":"VEC2"
		},
		{
			"bufferView":48,
			"componentType":5126,
			"count":46,
			"max":[
				-2.0209898948669434,
				6.293435573577881,
				0.893369197845459
			],
			"min":[
				-5.197356700897217,
				6.158115863800049,
				0.2846234440803528
			],
			"type":"VEC3"
		},
		{
			"bufferView":49,
			"componentType":5126,
			"count":46,
			"type":"VEC3"
		},
		{
			"bufferView":50,
			"componentType":5126,
			"count":46,
			"type":"VEC2"
		},
		{
			"bufferView":51,
			"componentType":5126,
			"count":46,
			"max":[
				-2.1954917907714844,
				6.161679267883301,
				8.12621021270752
			],
			"min":[
				-5.386962890625,
				6.03074836730957,
				7.63934850692749
			],
			"type":"VEC3"
		},
		{
			"bufferView":52,
			"componentType":5126,
			"count":46,
			"type":"VEC3"
		},
		{
			"bufferView":53,
			"componentType":5126,
			"count":46,
			"type":"VEC2"
		},
		{
			"bufferView":54,
			"componentType":5126,
			"count":82,
			"max":[
				1.2635420560836792,
				6.171788215637207,
				11.731139183044434
			],
			"min":[
				-1.3942762613296509,
				6.035620212554932,
				9.060881614685059
			],
			"type":"VEC3"
		},
		{
			"bufferView":55,
			"componentType":5126,
			"count":82,
			"type":"VEC3"
		},
		{
			"bufferView":56,
			"componentType":5126,
			"count":82,
			"type":"VEC2"
		},
		{
			"bufferView":57,
			"componentType":5123,
			"count":360,
			"type":"SCALAR"
		},
		{
			"bufferView":58,
			"componentType":5126,
			"count":82,
			"max":[
				4.968927383422852,
				6.171788692474365,
				7.66937255859375
			],
			"min":[
				2.2729697227478027,
				6.035620212554932,
				5.076836585998535
			],
			"type":"VEC3"
		},
		{
			"bufferView":59,
			"componentType":5126,
			"count":82,
			"type":"VEC3"
		},
		{
			"bufferView":60,
			"componentType":5126,
			"count":82,
			"type":"VEC2"
		},
		{
			"bufferView":61,
			"componentType":5126,
			"count":82,
			"max":[
				5.179859161376953,
				6.171788215637207,
				1.5855357646942139
			],
			"min":[
				2.5940632820129395,
				6.035620212554932,
				-1.1111377477645874
			],
			"type":"VEC3"
		},
		{
			"bufferView":62,
			"componentType":5126,
			"count":82,
			"type":"VEC3"
		},
		{
			"bufferView":63,
			"componentType":5126,
			"count":82,
			"type":"VEC2"
		},
		{
			"bufferView":64,
			"componentType":5126,
			"count":82,
			"max":[
				4.7065277099609375,
				6.171788692474365,
				-5.41619873046875
			],
			"min":[
				2.128909111022949,
				6.035619735717773,
				-8.113438606262207
			],
			"type":"VEC3"
		},
		{
			"bufferView":65,
			"componentType":5126,
			"count":82,
			"type":"VEC3"
		},
		{
			"bufferView":66,
			"componentType":5126,
			"count":82,
			"type":"VEC2"
		},
		{
			"bufferView":67,
			"componentType":5126,
			"count":82,
			"max":[
				1.0124849081039429,
				6.171788215637207,
				-9.451435089111328
			],
			"min":[
				-1.6130198240280151,
				6.035620212554932,
				-12.139789581298828
			],
			"type":"VEC3"
		},
		{
			"bufferView":68,
			"componentType":5126,
			"count":82,
			"type":"VEC3"
		},
		{
			"bufferView":69,
			"componentType":5126,
			"count":82,
			"type":"VEC2"
		},
		{
			"bufferView":70,
			"componentType":5126,
			"count":82,
			"max":[
				-2.4731245040893555,
				6.171788215637207,
				-5.168870449066162
			],
			"min":[
				-5.166020393371582,
				6.035620212554932,
				-7.778850078582764
			],
			"type":"VEC3"
		},
		{
			"bufferView":71,
			"componentType":5126,
			"count":82,
			"type":"VEC3"
		},
		{
			"bufferView":72,
			"componentType":5126,
			"count":82,
			"type":"VEC2"
		},
		{
			"bufferView":73,
			"componentType":5126,
			"count":82,
			"max":[
				-2.480393648147583,
				6.171789169311523,
				1.1316590309143066
			],
			"min":[
				-5.158754348754883,
				6.035619735717773,
				-1.5148341655731201
			],
			"type":"VEC3"
		},
		{
			"bufferView":74,
			"componentType":5126,
			"count":82,
			"type":"VEC3"
		},
		{
			"bufferView":75,
			"componentType":5126,
			"count":82,
			"type":"VEC2"
		},
		{
			"bufferView":76,
			"componentType":5126,
			"count":82,
			"max":[
				-2.6566739082336426,
				6.171789169311523,
				7.53289270401001
			],
			"min":[
				-5.268614768981934,
				6.035619735717773,
				4.840465545654297
			],
			"type":"VEC3"
		},
		{
			"bufferView":77,
			"componentType":5126,
			"count":82,
			"type":"VEC3"
		},
		{
			"bufferView":78,
			"componentType":5126,
			"count":82,
			"type":"VEC2"
		},
		{
			"bufferView":79,
			"componentType":5126,
			"count":1186,
			"max":[
				5.922698020935059,
				6.0370774269104,
				12.90668773651123
			],
			"min":[
				-5.922696113586426,
				-0.7091088891029358,
				-12.90668773651123
			],
			"type":"VEC3"
		},
		{
			"bufferView":80,
			"componentType":5126,
			"count":1186,
			"type":"VEC3"
		},
		{
			"bufferView":81,
			"componentType":5126,
			"count":1186,
			"type":"VEC2"
		},
		{
			"bufferView":82,
			"componentType":5123,
			"count":4692,
			"type":"SCALAR"
		}
	],
	"bufferViews":[
		{
			"buffer":0,
			"byteLength":6684,
			"byteOffset":0,
			"target":34962
		},
		{
			"buffer":0,
			"byteLength":6684,
			"byteOffset":6684,
			"target":34962
		},
		{
			"buffer":0,
			"byteLength":4456,
			"byteOffset":13368,
			"target":34962
		},
		{
			"buffer":0,
			"byteLength":4800,
			"byteOffset":17824,
			"target":34963
		},
		{
			"buffer":0,
			"byteLength":1200,
			"byteOffset":22624,
			"target":34962
		},
		{
			"buffer":0,
			"byteLength":1200,
			"byteOffset":23824,
			"target":34962
		},
		{
			"buffer":0,
			"byteLength":800,
			"byteOffset":25024,
			"target":34962
		},
		{
			"buffer":0,
			"byteLength":648,
			"byteOffset":25824,
			"target":34963
		},
		{
			"buffer":0,
			"byteLength":1200,
			"byteOffset":26472,
			"target":34962
		},
		{
			"buffer":0,
			"byteLength":1200,
			"byteOffset":27672,
			"target":34962
		},
		{
			"buffer":0,
			"byteLength":800,
			"byteOffset":28872,
			"target":34962
		},
		{
			"buffer":0,
			"byteLength":1200,
			"byteOffset":29672,
			"target":34962
		},
		{
			"buffer":0,
			"byteLength":1200,
			"byteOffset":30872,
			"target":34962
		},
		{
			"buffer":0,
			"byteLength":800,
			"byteOffset":32072,
			"target":34962
		},
		{
			"buffer":0,
			"byteLength":1200,
			"byteOffset":32872,
			"target":34962
		},
		{
			"buffer":0,
			"byteLength":1200,
			"byteOffset":34072,
			"target":34962
		},
		{
			"buffer":0,
			"byteLength":800,
			"byteOffset":35272,
			"target":34962
		},
		{
			"buffer":0,
			"byteLength":1200,
			"byteOffset":36072,
			"target":34962
		},
		{
			"buffer":0,
			"byteLength":1200,
			"byteOffset":37272,
			"target":34962
		},
		{
			"buffer":0,
			"byteLength":800,
			"byteOffset":38472,
			"target":34962
		},
		{
			"buffer":0,
			"byteLength":1200,
			"byteOffset":39272,
			"target":34962
		},
		{
			"buffer":0,
			"byteLength":1200,
			"byteOffset":40472,
			"target":34962
		},
		{
			"buffer":0,
			"byteLength":800,
			"byteOffset":41672,
			"target":34962
		},
		{
			"buffer":0,
			"byteLength":1200,
			"byteOffset":42472,
			"target":34962
		},
		{
			"buffer":0,
			"byteLength":1200,
			"byteOffset":43672,
			"target":34962
		},
		{
			"buffer":0,
			"byteLength":800,
			"byteOffset":44872,
			"target":34962
		},
		{
			"buffer":0,
			"byteLength":1200,
			"byteOffset":45672,
			"target":34962
		},
		{
			"buffer":0,
			"byteLength":1200,
			"byteOffset":46872,
			"target":34962
		},
		{
			"buffer":0,
			"byteLength":800,
			"byteOffset":48072,
			"target":34962
		},
		{
			"buffer":0,
			"byteLength":552,
			"byteOffset":48872,
			"target":34962
		},
		{
			"buffer":0,
			"byteLength":552,
			"byteOffset":49424,
			"target":34962
		},
		{
			"buffer":0,
			"byteLength":368,
			"byteOffset":49976,
			"target":34962
		},
		{
			"buffer":0,
			"byteLength":300,
			"byteOffset":50344,
			"target":34963
		},
		{
			"buffer":0,
			"byteLength":552,
			"byteOffset":50644,
			"target":34962
		},
		{
			"buffer":0,
			"byteLength":552,
			"byteOffset":51196,
			"target":34962
		},
		{
			"buffer":0,
			"byteLength":368,
			"byteOffset":51748,
			"target":34962
		},
		{
			"buffer":0,
			"byteLength":552,
			"byteOffset":52116,
			"target":34962
		},
		{
			"buffer":0,
			"byteLength":552,
			"byteOffset":52668,
			"target":34962
		},
		{
			"buffer":0,
			"byteLength":368,
			"byteOffset":53220,
			"target":34962
		},
		{
			"buffer":0,
			"byteLength":552,
			"byteOffset":53588,
			"target":34962
		},
		{
			"buffer":0,
			"byteLength":552,
			"byteOffset":54140,
			"target":34962
		},
		{
			"buffer":0,
			"byteLength":368,
			"byteOffset":54692,
			"target":34962
		},
		{
			"buffer":0,
			"byteLength":552,
			"byteOffset":55060,
			"target":34962
		},
		{
			"buffer":0,
			"byteLength":552,
			"byteOffset":55612,
			"target":34962
		},
		{
			"buffer":0,
			"byteLength":368,
			"byteOffset":56164,
			"target":34962
		},
		{
			"buffer":0,
			"byteLength":552,
			"byteOffset":56532,
			"target":34962
		},
		{
			"buffer":0,
			"byteLength":552,
			"byteOffset":57084,
			"target":34962
		},
		{
			"buffer":0,
			"byteLength":368,
			"byteOffset":57636,
			"target":34962
		},
		{
			"buffer":0,
			"byteLength":552,
			"byteOffset":58004,
			"target":34962
		},
		{
			"buffer":0,
			"byteLength":552,
			"byteOffset":58556,
			"target":34962
		},
		{
			"buffer":0,
			"byteLength":368,
			"byteOffset":59108,
			"target":34962
		},
		{
			"buffer":0,
			"byteLength":552,
			"byteOffset":59476,
			"target":34962
		},
		{
			"buffer":0,
			"byteLength":552,
			"byteOffset":60028,
			"target":34962
		},
		{
			"buffer":0,
			"byteLength":368,
			"byteOffset":60580,
			"target":34962
		},
		{
			"buffer":0,
			"byteLength":984,
			"byteOffset":60948,
			"target":34962
		},
		{
			"buffer":0,
			"byteLength":984,
			"byteOffset":61932,
			"target":34962
		},
		{
			"buffer":0,
			"byteLength":656,
			"byteOffset":62916,
			"target":34962
		},
		{
			"buffer":0,
			"byteLength":720,
			"byteOffset":63572,
			"target":34963
		},
		{
			"buffer":0,
			"byteLength":984,
			"byteOffset":64292,
			"target":34962
		},
		{
			"buffer":0,
			"byteLength":984,
			"byteOffset":65276,
			"target":34962
		},
		{
			"buffer":0,
			"byteLength":656,
			"byteOffset":66260,
			"target":34962
		},
		{
			"buffer":0,
			"byteLength":984,
			"byteOffset":66916,
			"target":34962
		},
		{
			"buffer":0,
			"byteLength":984,
			"byteOffset":67900,
			"target":34962
		},
		{
			"buffer":0,
			"byteLength":656,
			"byteOffset":68884,
			"target":34962
		},
		{
			"buffer":0,
			"byteLength":984,
			"byteOffset":69540,
			"target":34962
		},
		{
			"buffer":0,
			"byteLength":984,
			"byteOffset":70524,
			"target":34962
		},
		{
			"buffer":0,
			"byteLength":656,
			"byteOffset":71508,
			"target":34962
		},
		{
			"buffer":0,
			"byteLength":984,
			"byteOffset":72164,
			"target":34962
		},
		{
			"buffer":0,
			"byteLength":984,
			"byteOffset":73148,
			"target":34962
		},
		{
			"buffer":0,
			"byteLength":656,
			"byteOffset":74132,
			"target":34962
		},
		{
			"buffer":0,
			"byteLength":984,
			"byteOffset":74788,
			"target":34962
		},
		{
			"buffer":0,
			"byteLength":984,
			"byteOffset":75772,
			"target":34962
		},
		{
			"buffer":0,
			"byteLength":656,
			"byteOffset":76756,
			"target":34962
		},
		{
			"buffer":0,
			"byteLength":984,
			"byteOffset":77412,
			"target":34962
		},
		{
			"buffer":0,
			"byteLength":984,
			"byteOffset":78396,
			"target":34962
		},
		{
			"buffer":0,
			"byteLength":656,
			"byteOffset":79380,
			"target":34962
		},
		{
			"buffer":0,
			"byteLength":984,
			"byteOffset":80036,
			"target":34962
		},
		{
			"buffer":0,
			"byteLength":984,
			"byteOffset":81020,
			"target":34962
		},
		{
			"buffer":0,
			"byteLength":656,
			"byteOffset":82004,
			"target":34962
		},
		{
			"buffer":0,
			"byteLength":14232,
			"byteOffset":82660,
			"target":34962
		},
		{
			"buffer":0,
			"byteLength":14232,
			"byteOffset":96892,
			"target":34962
		},
		{
			"buffer":0,
			"byteLength":9488,
			"byteOffset":111124,
			"target":34962
		},
		{
			"buffer":0,
			"byteLength":9384,
			"byteOffset":120612,
			"target":34963
		}
	],
	"buffers":[
		{
			"byteLength":129996,
			"uri":"Untitled.bin"
		}
	]
}
